;TYPE=PLATED
;Layer: PTH_Through
;EasyEDA Pro v2.0.15, 2023-03-15 12:21:31
;Gerber Generator version 0.3
M48
METRIC,LZ,000.000
;Hole size 1 = 0.254 METRIC
T01C0.254
;Hole size 2 = 0.700 METRIC
T02C0.700
%
G05
G90
T01
X033655Y-025273
X028448Y-031115
X020701Y-025781
X013970Y-020320
X042418Y-023876
X034417Y-023749
X036195Y-022860
X022352Y-028448
X015875Y-022733
X015875Y-027432
X031750Y-023114
X036465Y-031242
X040858Y-026543
X030607Y-026797
X029845Y-025400
X031242Y-024765
X029845Y-024765
X018542Y-023622
X017907Y-021844
X029718Y-024130
X029083Y-023368
X022352Y-021463
X044577Y-025273
X044577Y-025972
X044490Y-023210
X026543Y-029083
X019177Y-027432
X015494Y-024892
X017907Y-028829
X032512Y-026797
X022479Y-022987
X029083Y-027051
X017145Y-031369
X013589Y-031115
X034544Y-024879
X032754Y-032258
X034254Y-032258
X026484Y-030412
X040767Y-029591
X036254Y-029591
X026797Y-022352
X039751Y-021844
X037084Y-030353
T02
X050071Y-030355G85X050771Y-030355
X050071Y-021715G85X050771Y-021715
X045741Y-021715G85X046741Y-021715
X045741Y-030355G85X046741Y-030355
M30