G04 Layer: BottomLayer*
G04 EasyEDA Pro v2.0.15, 2023-03-15 12:21:30*
G04 Gerber Generator version 0.3*
G04 Scale: 100 percent, Rotated: No, Reflected: No*
G04 Dimensions in millimeters*
G04 Leading zeros omitted, absolute positions, 3 integers and 3 decimals*
%FSLAX33Y33*%
%MOMM*%
%ADD999C,0.2032*%
%ADD10R,1.699997X0.599999*%
%ADD11R,2.699995X0.999998*%
%ADD12O,1.799996X1.199998*%
%ADD13O,1.999996X1.199998*%
%ADD14C,0.4572*%
%ADD15C,0.2548*%
%ADD16C,0.254*%
%ADD17C,0.381*%
G75*


G04 Copper Start*
G36*
G01X14732Y-32916D02*
G02X12550Y-30734I0J2182D01*
G01Y-21209D01*
G02X14732Y-19027I2182J0D01*
G01X50800D01*
G02X52982Y-21209I0J-2182D01*
G01Y-30734D01*
G02X50800Y-32916I-2182J0D01*
G01X14732D01*
G37*
%LPC*%
G36*
G01X26797Y-32108D02*
G03X27140Y-31966I0J485D01*
G01X31585Y-27521D01*
G03X31727Y-27178I-343J343D01*
G01Y-25095D01*
G03X31829Y-24765I-485J330D01*
G03X31242Y-24178I-587J0D01*
G03X30655Y-24765I0J-587D01*
G03X30757Y-25095I587J0D01*
G01Y-26230D01*
G03X30607Y-26210I-150J-567D01*
G03X30020Y-26797I0J-587D01*
G03X30069Y-27030I587J0D01*
G01X26988Y-30111D01*
G03X26484Y-29825I-504J-301D01*
G03X26154Y-29927I0J-587D01*
G01X19564D01*
G01X19027Y-29390D01*
G01Y-27999D01*
G03X19067Y-28008I150J567D01*
G01X20485Y-29426D01*
G03X20828Y-29568I343J343D01*
G01X26213D01*
G03X26543Y-29670I330J485D01*
G03X27130Y-29083I0J587D01*
G03X26543Y-28496I-587J0D01*
G03X26213Y-28598I0J-587D01*
G01X22919D01*
G03X22939Y-28448I-567J150D01*
G03X22837Y-28118I-587J0D01*
G01Y-26363D01*
G01X23315Y-25885D01*
G01X29515D01*
G03X29845Y-25987I330J485D01*
G03X30432Y-25400I0J587D01*
G03X30338Y-25082I-587J0D01*
G03X30432Y-24765I-493J318D01*
G03X30261Y-24352I-587J0D01*
G03X30305Y-24130I-543J222D01*
G03X29718Y-23543I-587J0D01*
G03X29641Y-23548I0J-587D01*
G03X29670Y-23368I-558J180D01*
G03X29083Y-22781I-587J0D01*
G03X28753Y-22883I0J-587D01*
G01X24458D01*
G01X22952Y-21377D01*
G01X41880D01*
G01X43955Y-23451D01*
G03X44490Y-23797I535J241D01*
G03X45077Y-23210I0J587D01*
G03X44731Y-22675I-587J0D01*
G01X42495Y-20440D01*
G03X42107Y-20279I-388J-388D01*
G01X18034D01*
G03X17646Y-20440I0J-549D01*
G01X16834Y-21252D01*
G03X16673Y-21640I388J-388D01*
G01Y-22994D01*
G01X16401D01*
G03X16462Y-22733I-526J261D01*
G03X15875Y-22146I-587J0D01*
G03X15545Y-22248I0J-587D01*
G01X14478D01*
G03X14135Y-22390I0J-485D01*
G01X12738Y-23787D01*
G03X12596Y-24130I343J-343D01*
G01Y-26162D01*
G03X12738Y-26505I485J0D01*
G01X14008Y-27775D01*
G03X14351Y-27917I343J343D01*
G01X15545D01*
G03X15875Y-28019I330J485D01*
G03X16126Y-27962I0J587D01*
G03X16372Y-28060I246J260D01*
G01X16737D01*
G01Y-29815D01*
G03X16879Y-30158I485J0D01*
G01X17859Y-31138D01*
G01X17684D01*
G03X17145Y-30782I-539J-231D01*
G03X16558Y-31369I0J-587D01*
G03X17035Y-31945I587J0D01*
G01X17056Y-31966D01*
G03X17399Y-32108I343J343D01*
G01X26797D01*
G37*
G36*
G01X35879Y-31242D02*
G03X36465Y-31829I587J0D01*
G03X36795Y-31727I0J587D01*
G01X40894D01*
G03X41237Y-31585I0J485D01*
G01X41618Y-31204D01*
G03X41760Y-30861I-343J343D01*
G01Y-26960D01*
G03X41618Y-26617I-485J0D01*
G01X41434Y-26433D01*
G03X41388Y-26292I-576J-110D01*
G01X44085D01*
G03X44577Y-26559I492J320D01*
G03X45164Y-25972I0J587D01*
G03X45048Y-25623I-587J0D01*
G03X45164Y-25273I-471J350D01*
G03X44577Y-24686I-587J0D01*
G03X44247Y-24788I0J-587D01*
G01X35126D01*
G01X35123Y-24785D01*
G03X34544Y-24293I-579J-94D01*
G03X33966Y-24776I0J-587D01*
G03X33655Y-24686I-311J-497D01*
G03X33325Y-24788I0J-587D01*
G01X32893D01*
G03X32550Y-24930I0J-485D01*
G01X32296Y-25184D01*
G03X32154Y-25527I343J-343D01*
G01Y-25552D01*
G03X32296Y-25895I485J0D01*
G01X32550Y-26149D01*
G03X32893Y-26292I343J343D01*
G01X40328D01*
G03X40271Y-26543I530J-251D01*
G03X40748Y-27119I587J0D01*
G01X40790Y-27161D01*
G01Y-29005D01*
G01X40767Y-29004D01*
G03X40437Y-29106I0J-587D01*
G01X36584D01*
G03X36254Y-29004I-330J-485D01*
G03X35667Y-29591I0J-587D01*
G03X36254Y-30178I587J0D01*
G03X36584Y-30076I0J587D01*
G01X40437D01*
G03X40767Y-30178I330J485D01*
G01X40790Y-30177D01*
G01Y-30660D01*
G01X40693Y-30757D01*
G01X36795D01*
G03X36465Y-30655I-330J-485D01*
G03X35879Y-31242I0J-587D01*
G37*
G36*
G01X31163Y-23114D02*
G03X31750Y-23701I587J0D01*
G03X32080Y-23599I0J587D01*
G01X35941D01*
G03X36284Y-23457I0J485D01*
G01X36305Y-23436D01*
G03X36782Y-22860I-110J576D01*
G03X36195Y-22273I-587J0D01*
G03X35656Y-22629I0J-587D01*
G01X32080D01*
G03X31750Y-22527I-330J-485D01*
G03X31163Y-23114I0J-587D01*
G37*
G36*
G01X46771Y-23853D02*
G03X47479Y-23145I0J708D01*
G03X46771Y-22437I-708J0D01*
G03X46063Y-23145I0J-708D01*
G03X46771Y-23853I708J0D01*
G37*
G36*
G01X46063Y-28925D02*
G03X46771Y-29633I708J0D01*
G03X47479Y-28925I0J708D01*
G03X46771Y-28217I-708J0D01*
G03X46063Y-28925I0J-708D01*
G37*
%LPD*%
G36*
G01X21765Y-28448D02*
G03X21785Y-28598I587J0D01*
G01X21029D01*
G01X19753Y-27322D01*
G03X19177Y-26845I-576J-110D01*
G03X19027Y-26865I0J-587D01*
G01Y-26543D01*
G03X18885Y-26200I-485J0D01*
G01X18494Y-25809D01*
G03X18413Y-25744I-343J-343D01*
G03X18072Y-25494I-341J-108D01*
G01X16372D01*
G03X16014Y-25852I0J-358D01*
G01Y-26452D01*
G03X16221Y-26777I358J0D01*
G03X16087Y-26885I151J-325D01*
G03X15875Y-26845I-212J-547D01*
G03X15545Y-26947I0J-587D01*
G01X14552D01*
G01X13566Y-25961D01*
G01Y-24331D01*
G01X14679Y-23218D01*
G01X15545D01*
G03X15875Y-23320I330J485D01*
G03X16017Y-23302I0J587D01*
G03X16014Y-23352I355J-50D01*
G01Y-23952D01*
G03X16372Y-24310I358J0D01*
G01X18072D01*
G03X18351Y-24177I0J358D01*
G03X18432Y-24198I191J555D01*
G01X19342Y-25108D01*
G03X19685Y-25250I343J343D01*
G01X22578D01*
G01X22009Y-25819D01*
G03X21867Y-26162I343J-343D01*
G01Y-28118D01*
G03X21765Y-28448I485J-330D01*
G37*
G36*
G01X18199Y-29934D02*
G01X18895Y-30630D01*
G01X18723D01*
G01X17707Y-29614D01*
G01Y-28060D01*
G01X18057D01*
G01Y-29591D01*
G03X18199Y-29934I485J0D01*
G37*
G36*
G01X20394Y-23645D02*
G01X18483Y-21734D01*
G03X18262Y-21377I-576J-110D01*
G01X21772D01*
G03X21765Y-21463I580J-86D01*
G03X22242Y-22039I587J0D01*
G01X23848Y-23645D01*
G01X20394D01*
G37*
G54D999*
G01X14732Y-32916D02*
G02X12550Y-30734I0J2182D01*
G01Y-21209D01*
G02X14732Y-19027I2182J0D01*
G01X50800D01*
G02X52982Y-21209I0J-2182D01*
G01Y-30734D01*
G02X50800Y-32916I-2182J0D01*
G01X14732D01*
G01X26797Y-32108D02*
G03X27140Y-31966I0J485D01*
G01X31585Y-27521D01*
G03X31727Y-27178I-343J343D01*
G01Y-25095D01*
G03X31829Y-24765I-485J330D01*
G03X31242Y-24178I-587J0D01*
G03X30655Y-24765I0J-587D01*
G03X30757Y-25095I587J0D01*
G01Y-26230D01*
G03X30607Y-26210I-150J-567D01*
G03X30020Y-26797I0J-587D01*
G03X30069Y-27030I587J0D01*
G01X26988Y-30111D01*
G03X26484Y-29825I-504J-301D01*
G03X26154Y-29927I0J-587D01*
G01X19564D01*
G01X19027Y-29390D01*
G01Y-27999D01*
G03X19067Y-28008I150J567D01*
G01X20485Y-29426D01*
G03X20828Y-29568I343J343D01*
G01X26213D01*
G03X26543Y-29670I330J485D01*
G03X27130Y-29083I0J587D01*
G03X26543Y-28496I-587J0D01*
G03X26213Y-28598I0J-587D01*
G01X22919D01*
G03X22939Y-28448I-567J150D01*
G03X22837Y-28118I-587J0D01*
G01Y-26363D01*
G01X23315Y-25885D01*
G01X29515D01*
G03X29845Y-25987I330J485D01*
G03X30432Y-25400I0J587D01*
G03X30338Y-25082I-587J0D01*
G03X30432Y-24765I-493J318D01*
G03X30261Y-24352I-587J0D01*
G03X30305Y-24130I-543J222D01*
G03X29718Y-23543I-587J0D01*
G03X29641Y-23548I0J-587D01*
G03X29670Y-23368I-558J180D01*
G03X29083Y-22781I-587J0D01*
G03X28753Y-22883I0J-587D01*
G01X24458D01*
G01X22952Y-21377D01*
G01X41880D01*
G01X43955Y-23451D01*
G03X44490Y-23797I535J241D01*
G03X45077Y-23210I0J587D01*
G03X44731Y-22675I-587J0D01*
G01X42495Y-20440D01*
G03X42107Y-20279I-388J-388D01*
G01X18034D01*
G03X17646Y-20440I0J-549D01*
G01X16834Y-21252D01*
G03X16673Y-21640I388J-388D01*
G01Y-22994D01*
G01X16401D01*
G03X16462Y-22733I-526J261D01*
G03X15875Y-22146I-587J0D01*
G03X15545Y-22248I0J-587D01*
G01X14478D01*
G03X14135Y-22390I0J-485D01*
G01X12738Y-23787D01*
G03X12596Y-24130I343J-343D01*
G01Y-26162D01*
G03X12738Y-26505I485J0D01*
G01X14008Y-27775D01*
G03X14351Y-27917I343J343D01*
G01X15545D01*
G03X15875Y-28019I330J485D01*
G03X16126Y-27962I0J587D01*
G03X16372Y-28060I246J260D01*
G01X16737D01*
G01Y-29815D01*
G03X16879Y-30158I485J0D01*
G01X17859Y-31138D01*
G01X17684D01*
G03X17145Y-30782I-539J-231D01*
G03X16558Y-31369I0J-587D01*
G03X17035Y-31945I587J0D01*
G01X17056Y-31966D01*
G03X17399Y-32108I343J343D01*
G01X26797D01*
G01X35879Y-31242D02*
G03X36465Y-31829I587J0D01*
G03X36795Y-31727I0J587D01*
G01X40894D01*
G03X41237Y-31585I0J485D01*
G01X41618Y-31204D01*
G03X41760Y-30861I-343J343D01*
G01Y-26960D01*
G03X41618Y-26617I-485J0D01*
G01X41434Y-26433D01*
G03X41388Y-26292I-576J-110D01*
G01X44085D01*
G03X44577Y-26559I492J320D01*
G03X45164Y-25972I0J587D01*
G03X45048Y-25623I-587J0D01*
G03X45164Y-25273I-471J350D01*
G03X44577Y-24686I-587J0D01*
G03X44247Y-24788I0J-587D01*
G01X35126D01*
G01X35123Y-24785D01*
G03X34544Y-24293I-579J-94D01*
G03X33966Y-24776I0J-587D01*
G03X33655Y-24686I-311J-497D01*
G03X33325Y-24788I0J-587D01*
G01X32893D01*
G03X32550Y-24930I0J-485D01*
G01X32296Y-25184D01*
G03X32154Y-25527I343J-343D01*
G01Y-25552D01*
G03X32296Y-25895I485J0D01*
G01X32550Y-26149D01*
G03X32893Y-26292I343J343D01*
G01X40328D01*
G03X40271Y-26543I530J-251D01*
G03X40748Y-27119I587J0D01*
G01X40790Y-27161D01*
G01Y-29005D01*
G01X40767Y-29004D01*
G03X40437Y-29106I0J-587D01*
G01X36584D01*
G03X36254Y-29004I-330J-485D01*
G03X35667Y-29591I0J-587D01*
G03X36254Y-30178I587J0D01*
G03X36584Y-30076I0J587D01*
G01X40437D01*
G03X40767Y-30178I330J485D01*
G01X40790Y-30177D01*
G01Y-30660D01*
G01X40693Y-30757D01*
G01X36795D01*
G03X36465Y-30655I-330J-485D01*
G03X35879Y-31242I0J-587D01*
G01X31163Y-23114D02*
G03X31750Y-23701I587J0D01*
G03X32080Y-23599I0J587D01*
G01X35941D01*
G03X36284Y-23457I0J485D01*
G01X36305Y-23436D01*
G03X36782Y-22860I-110J576D01*
G03X36195Y-22273I-587J0D01*
G03X35656Y-22629I0J-587D01*
G01X32080D01*
G03X31750Y-22527I-330J-485D01*
G03X31163Y-23114I0J-587D01*
G01X46771Y-23853D02*
G03X47479Y-23145I0J708D01*
G03X46771Y-22437I-708J0D01*
G03X46063Y-23145I0J-708D01*
G03X46771Y-23853I708J0D01*
G01X46063Y-28925D02*
G03X46771Y-29633I708J0D01*
G03X47479Y-28925I0J708D01*
G03X46771Y-28217I-708J0D01*
G03X46063Y-28925I0J-708D01*
G01X21765Y-28448D02*
G03X21785Y-28598I587J0D01*
G01X21029D01*
G01X19753Y-27322D01*
G03X19177Y-26845I-576J-110D01*
G03X19027Y-26865I0J-587D01*
G01Y-26543D01*
G03X18885Y-26200I-485J0D01*
G01X18494Y-25809D01*
G03X18413Y-25744I-343J-343D01*
G03X18072Y-25494I-341J-108D01*
G01X16372D01*
G03X16014Y-25852I0J-358D01*
G01Y-26452D01*
G03X16221Y-26777I358J0D01*
G03X16087Y-26885I151J-325D01*
G03X15875Y-26845I-212J-547D01*
G03X15545Y-26947I0J-587D01*
G01X14552D01*
G01X13566Y-25961D01*
G01Y-24331D01*
G01X14679Y-23218D01*
G01X15545D01*
G03X15875Y-23320I330J485D01*
G03X16017Y-23302I0J587D01*
G03X16014Y-23352I355J-50D01*
G01Y-23952D01*
G03X16372Y-24310I358J0D01*
G01X18072D01*
G03X18351Y-24177I0J358D01*
G03X18432Y-24198I191J555D01*
G01X19342Y-25108D01*
G03X19685Y-25250I343J343D01*
G01X22578D01*
G01X22009Y-25819D01*
G03X21867Y-26162I343J-343D01*
G01Y-28118D01*
G03X21765Y-28448I485J-330D01*
G01X18199Y-29934D02*
G01X18895Y-30630D01*
G01X18723D01*
G01X17707Y-29614D01*
G01Y-28060D01*
G01X18057D01*
G01Y-29591D01*
G03X18199Y-29934I485J0D01*
G01X20394Y-23645D02*
G01X18483Y-21734D01*
G03X18262Y-21377I-576J-110D01*
G01X21772D01*
G03X21765Y-21463I580J-86D01*
G03X22242Y-22039I587J0D01*
G01X23848Y-23645D01*
G01X20394D01*
G04 Copper End*

G04 Pad Start*
G54D10*
G01X17222Y-23652D03*
G01X17222Y-24902D03*
G01X17222Y-26152D03*
G01X17222Y-27402D03*
G54D11*
G01X14020Y-21802D03*
G01X14020Y-29252D03*
G54D12*
G01X50421Y-30355D03*
G01X50421Y-21715D03*
G54D13*
G01X46241Y-21715D03*
G01X46241Y-30355D03*
G04 Pad End*

G04 Via Start*
G54D14*
G01X33655Y-25273D03*
G01X28448Y-31115D03*
G01X20701Y-25781D03*
G01X13970Y-20320D03*
G01X42418Y-23876D03*
G01X34417Y-23749D03*
G01X36195Y-22860D03*
G01X22352Y-28448D03*
G01X15875Y-22733D03*
G01X15875Y-27432D03*
G01X31750Y-23114D03*
G01X36465Y-31242D03*
G01X40858Y-26543D03*
G01X30607Y-26797D03*
G01X29845Y-25400D03*
G01X31242Y-24765D03*
G01X29845Y-24765D03*
G01X18542Y-23622D03*
G01X17907Y-21844D03*
G01X29718Y-24130D03*
G01X29083Y-23368D03*
G01X22352Y-21463D03*
G01X44577Y-25273D03*
G01X44577Y-25972D03*
G01X44490Y-23210D03*
G01X26543Y-29083D03*
G01X19177Y-27432D03*
G01X15494Y-24892D03*
G01X17907Y-28829D03*
G01X32512Y-26797D03*
G01X22479Y-22987D03*
G01X29083Y-27051D03*
G01X17145Y-31369D03*
G01X13589Y-31115D03*
G01X34544Y-24879D03*
G01X32754Y-32258D03*
G01X34254Y-32258D03*
G01X26484Y-30412D03*
G01X40767Y-29591D03*
G01X36254Y-29591D03*
G01X26797Y-22352D03*
G01X39751Y-21844D03*
G01X37084Y-30353D03*
G04 Via End*

G04 Track Start*
G54D16*
G01X18552Y-24902D02*
G01X19050Y-25400D01*
G01X17222Y-24902D02*
G01X18552Y-24902D01*
G01X22352Y-28448D02*
G01X22352Y-26162D01*
G01X23114Y-25400D02*
G01X22352Y-26162D01*
G01X40894Y-31242D02*
G01X36465Y-31242D01*
G01X41275Y-30861D02*
G01X40894Y-31242D01*
G01X41275Y-26960D02*
G01X41275Y-30861D01*
G01X40858Y-26543D02*
G01X41275Y-26960D01*
G01X31242Y-24765D02*
G01X31242Y-27178D01*
G01X29845Y-25400D02*
G01X23114Y-25400D01*
G01X20193Y-24130D02*
G01X17907Y-21844D01*
G01X29718Y-24130D02*
G01X20193Y-24130D01*
G01X24257Y-23368D02*
G01X22352Y-21463D01*
G01X29083Y-23368D02*
G01X24257Y-23368D01*
G01X29845Y-24765D02*
G01X19685Y-24765D01*
G01X18542Y-23622D01*
G01X44411Y-25806D02*
G01X44577Y-25972D01*
G01X32893Y-25806D02*
G01X44411Y-25806D01*
G01X32639Y-25552D02*
G01X32893Y-25806D01*
G54D17*
G01X17222Y-21640D02*
G01X17222Y-23652D01*
G01X18034Y-20828D02*
G01X17222Y-21640D01*
G01X44490Y-23210D02*
G01X42107Y-20828D01*
G01X18034D01*
G54D16*
G01X33655Y-25273D02*
G01X32893Y-25273D01*
G01X32639Y-25527D01*
G01Y-25552D01*
G01X36195Y-22860D02*
G01X35941Y-23114D01*
G01X31750D01*
G01X17222Y-29815D02*
G01X17222Y-27402D01*
G01X18151Y-26152D02*
G01X17222Y-26152D01*
G01X18542Y-26543D02*
G01X18151Y-26152D01*
G01X18542Y-29591D02*
G01X18542Y-26543D01*
G01X20828Y-29083D02*
G01X19177Y-27432D01*
G01X26543Y-29083D02*
G01X20828Y-29083D01*
G01X17222Y-24902D02*
G01X15504Y-24902D01*
G01X15494Y-24892D01*
G01X17222Y-23652D02*
G01X18014Y-22860D01*
G01Y-22840D01*
G01X17780Y-22606D01*
G01X15875Y-22733D02*
G01X14478Y-22733D01*
G01X14351Y-27432D02*
G01X15875Y-27432D01*
G01X14478Y-22733D02*
G01X13081Y-24130D01*
G01Y-26162D01*
G01X14351Y-27432D01*
G01X34925Y-25273D02*
G01X44577Y-25273D01*
G01X34544Y-24892D02*
G01X34925Y-25273D01*
G01X19363Y-30412D02*
G01X18542Y-29591D01*
G01X26484Y-30412D02*
G01X19363Y-30412D01*
G01X17145Y-31369D02*
G01X17399Y-31623D01*
G01X26797D01*
G01X31242Y-27178D01*
G01X18522Y-31115D02*
G01X17222Y-29815D01*
G01X30607Y-26797D02*
G01X30607Y-27178D01*
G01X26670Y-31115D01*
G01X18522D01*
G01X36254Y-29591D02*
G01X40767Y-29591D01*
G04 Track End*

M02*
