G04 Layer: TopPasteMaskLayer*
G04 EasyEDA Pro v2.0.15, 2023-03-15 12:21:30*
G04 Gerber Generator version 0.3*
G04 Scale: 100 percent, Rotated: No, Reflected: No*
G04 Dimensions in millimeters*
G04 Leading zeros omitted, absolute positions, 3 integers and 3 decimals*
%FSLAX33Y33*%
%MOMM*%
%ADD10R,0.799998X0.899998*%
%ADD11R,0.799998X0.899998*%
%ADD12R,1.699997X0.599999*%
%ADD13R,2.699995X0.999998*%
%ADD14O,1.499997X0.270002*%
%ADD15O,0.270002X1.499997*%
%ADD16R,0.999998X0.599999*%
%ADD17R,2.7047X1.499997*%
%ADD18R,2.699995X1.499997*%
G75*


G04 PolygonModel Start*
G36*
G01X25452Y-22664D02*
G01X24652Y-22664D01*
G01X24602Y-22714D01*
G01Y-22942D01*
G01X24972D01*
G01Y-23272D01*
G01X24602D01*
G01Y-23514D01*
G01X24652Y-23564D01*
G01X25452D01*
G01X25502Y-23514D01*
G01Y-22714D01*
G01X25452Y-22664D01*
G37*
G36*
G01X23902Y-22714D02*
G01X23902Y-22942D01*
G01X23522D01*
G01Y-23272D01*
G01X23902D01*
G01Y-23514D01*
G01X23852Y-23564D01*
G01X23062D01*
G01X23012Y-23514D01*
G01Y-22714D01*
G01X23062Y-22664D01*
G01X23852D01*
G01X23902Y-22714D01*
G37*
G36*
G01X19506Y-21913D02*
G01X20306Y-21913D01*
G01X20356Y-21863D01*
G01Y-21635D01*
G01X19986D01*
G01Y-21305D01*
G01X20356D01*
G01Y-21063D01*
G01X20306Y-21013D01*
G01X19506D01*
G01X19456Y-21063D01*
G01Y-21863D01*
G01X19506Y-21913D01*
G37*
G36*
G01X21056Y-21863D02*
G01X21056Y-21635D01*
G01X21436D01*
G01Y-21305D01*
G01X21056D01*
G01Y-21063D01*
G01X21106Y-21013D01*
G01X21896D01*
G01X21946Y-21063D01*
G01Y-21863D01*
G01X21896Y-21913D01*
G01X21106D01*
G01X21056Y-21863D01*
G37*
G36*
G01X19506Y-28771D02*
G01X20306Y-28771D01*
G01X20356Y-28721D01*
G01Y-28493D01*
G01X19986D01*
G01Y-28163D01*
G01X20356D01*
G01Y-27921D01*
G01X20306Y-27871D01*
G01X19506D01*
G01X19456Y-27921D01*
G01Y-28721D01*
G01X19506Y-28771D01*
G37*
G36*
G01X21056Y-28721D02*
G01X21056Y-28493D01*
G01X21436D01*
G01Y-28163D01*
G01X21056D01*
G01Y-27921D01*
G01X21106Y-27871D01*
G01X21896D01*
G01X21946Y-27921D01*
G01Y-28721D01*
G01X21896Y-28771D01*
G01X21106D01*
G01X21056Y-28721D01*
G37*
G36*
G01X21896Y-29395D02*
G01X21096Y-29395D01*
G01X21046Y-29445D01*
G01Y-29673D01*
G01X21416D01*
G01Y-30003D01*
G01X21046D01*
G01Y-30245D01*
G01X21096Y-30295D01*
G01X21896D01*
G01X21946Y-30245D01*
G01Y-29445D01*
G01X21896Y-29395D01*
G37*
G36*
G01X20346Y-29445D02*
G01X20346Y-29673D01*
G01X19966D01*
G01Y-30003D01*
G01X20346D01*
G01Y-30245D01*
G01X20296Y-30295D01*
G01X19506D01*
G01X19456Y-30245D01*
G01Y-29445D01*
G01X19506Y-29395D01*
G01X20296D01*
G01X20346Y-29445D01*
G37*
G36*
G01X40057Y-22791D02*
G01X39257Y-22791D01*
G01X39207Y-22841D01*
G01Y-23069D01*
G01X39577D01*
G01Y-23399D01*
G01X39207D01*
G01Y-23641D01*
G01X39257Y-23691D01*
G01X40057D01*
G01X40107Y-23641D01*
G01Y-22841D01*
G01X40057Y-22791D01*
G37*
G36*
G01X38507Y-22841D02*
G01X38507Y-23069D01*
G01X38127D01*
G01Y-23399D01*
G01X38507D01*
G01Y-23641D01*
G01X38457Y-23691D01*
G01X37667D01*
G01X37617Y-23641D01*
G01Y-22841D01*
G01X37667Y-22791D01*
G01X38457D01*
G01X38507Y-22841D01*
G37*
G36*
G01X37667Y-30041D02*
G01X38467Y-30041D01*
G01X38517Y-29991D01*
G01Y-29763D01*
G01X38147D01*
G01Y-29433D01*
G01X38517D01*
G01Y-29191D01*
G01X38467Y-29141D01*
G01X37667D01*
G01X37617Y-29191D01*
G01Y-29991D01*
G01X37667Y-30041D01*
G37*
G36*
G01X39217Y-29991D02*
G01X39217Y-29763D01*
G01X39597D01*
G01Y-29433D01*
G01X39217D01*
G01Y-29191D01*
G01X39267Y-29141D01*
G01X40057D01*
G01X40107Y-29191D01*
G01Y-29991D01*
G01X40057Y-30041D01*
G01X39267D01*
G01X39217Y-29991D01*
G37*
G36*
G01X45243Y-30310D02*
G01X45241Y-30340D01*
G01Y-30370D01*
G01X45243Y-30400D01*
G01X45246Y-30430D01*
G01X45250Y-30459D01*
G01X45256Y-30489D01*
G01X45263Y-30518D01*
G01X45272Y-30546D01*
G01X45282Y-30574D01*
G01X45294Y-30602D01*
G01X45307Y-30629D01*
G01X45321Y-30655D01*
G01X45337Y-30681D01*
G01X45354Y-30705D01*
G01X45372Y-30729D01*
G01X45391Y-30752D01*
G01X45411Y-30774D01*
G01X45433Y-30795D01*
G01X45455Y-30815D01*
G01X45479Y-30833D01*
G01X45503Y-30851D01*
G01X45528Y-30867D01*
G01X45554Y-30882D01*
G01X45581Y-30896D01*
G01X45608Y-30908D01*
G01X45636Y-30919D01*
G01X45664Y-30928D01*
G01X45693Y-30936D01*
G01X45722Y-30943D01*
G01X45752Y-30948D01*
G01X45781Y-30952D01*
G01X45811Y-30954D01*
G01X45841Y-30955D01*
G01X46641D01*
G01X46671Y-30954D01*
G01X46701Y-30952D01*
G01X46730Y-30948D01*
G01X46760Y-30943D01*
G01X46789Y-30936D01*
G01X46818Y-30928D01*
G01X46846Y-30919D01*
G01X46874Y-30908D01*
G01X46901Y-30896D01*
G01X46928Y-30882D01*
G01X46954Y-30867D01*
G01X46979Y-30851D01*
G01X47003Y-30833D01*
G01X47027Y-30815D01*
G01X47049Y-30795D01*
G01X47070Y-30774D01*
G01X47091Y-30752D01*
G01X47110Y-30729D01*
G01X47128Y-30705D01*
G01X47145Y-30681D01*
G01X47161Y-30655D01*
G01X47175Y-30629D01*
G01X47188Y-30602D01*
G01X47199Y-30574D01*
G01X47210Y-30546D01*
G01X47219Y-30518D01*
G01X47226Y-30489D01*
G01X47232Y-30459D01*
G01X47236Y-30430D01*
G01X47239Y-30400D01*
G01X47241Y-30370D01*
G01Y-30340D01*
G01X47239Y-30310D01*
G01X47236Y-30280D01*
G01X47232Y-30251D01*
G01X47226Y-30222D01*
G01X47219Y-30193D01*
G01X47210Y-30164D01*
G01X47199Y-30136D01*
G01X47188Y-30108D01*
G01X47175Y-30081D01*
G01X47161Y-30055D01*
G01X47145Y-30030D01*
G01X47128Y-30005D01*
G01X47110Y-29981D01*
G01X47091Y-29958D01*
G01X47070Y-29936D01*
G01X47049Y-29915D01*
G01X47027Y-29895D01*
G01X47003Y-29877D01*
G01X46979Y-29859D01*
G01X46954Y-29843D01*
G01X46928Y-29828D01*
G01X46901Y-29814D01*
G01X46874Y-29802D01*
G01X46846Y-29791D01*
G01X46818Y-29782D01*
G01X46789Y-29774D01*
G01X46760Y-29767D01*
G01X46730Y-29762D01*
G01X46701Y-29758D01*
G01X46671Y-29756D01*
G01X46641Y-29755D01*
G01X45841D01*
G01X45811Y-29756D01*
G01X45781Y-29758D01*
G01X45752Y-29762D01*
G01X45722Y-29767D01*
G01X45693Y-29774D01*
G01X45664Y-29782D01*
G01X45636Y-29791D01*
G01X45608Y-29802D01*
G01X45581Y-29814D01*
G01X45554Y-29828D01*
G01X45528Y-29843D01*
G01X45503Y-29859D01*
G01X45479Y-29877D01*
G01X45455Y-29895D01*
G01X45433Y-29915D01*
G01X45411Y-29936D01*
G01X45391Y-29958D01*
G01X45372Y-29981D01*
G01X45354Y-30005D01*
G01X45337Y-30030D01*
G01X45321Y-30055D01*
G01X45307Y-30081D01*
G01X45294Y-30108D01*
G01X45282Y-30136D01*
G01X45272Y-30164D01*
G01X45263Y-30193D01*
G01X45256Y-30222D01*
G01X45250Y-30251D01*
G01X45246Y-30280D01*
G01X45243Y-30310D01*
G37*
G36*
G01X45243Y-21670D02*
G01X45241Y-21700D01*
G01Y-21730D01*
G01X45243Y-21760D01*
G01X45246Y-21790D01*
G01X45250Y-21819D01*
G01X45256Y-21848D01*
G01X45263Y-21877D01*
G01X45272Y-21906D01*
G01X45282Y-21934D01*
G01X45294Y-21962D01*
G01X45307Y-21989D01*
G01X45321Y-22015D01*
G01X45337Y-22040D01*
G01X45354Y-22065D01*
G01X45372Y-22089D01*
G01X45391Y-22112D01*
G01X45411Y-22134D01*
G01X45433Y-22155D01*
G01X45455Y-22175D01*
G01X45479Y-22193D01*
G01X45503Y-22211D01*
G01X45528Y-22227D01*
G01X45554Y-22242D01*
G01X45581Y-22256D01*
G01X45608Y-22268D01*
G01X45636Y-22279D01*
G01X45664Y-22288D01*
G01X45693Y-22296D01*
G01X45722Y-22303D01*
G01X45752Y-22308D01*
G01X45781Y-22312D01*
G01X45811Y-22314D01*
G01X45841Y-22315D01*
G01X46641D01*
G01X46671Y-22314D01*
G01X46701Y-22312D01*
G01X46730Y-22308D01*
G01X46760Y-22303D01*
G01X46789Y-22296D01*
G01X46818Y-22288D01*
G01X46846Y-22279D01*
G01X46874Y-22268D01*
G01X46901Y-22256D01*
G01X46928Y-22242D01*
G01X46954Y-22227D01*
G01X46979Y-22211D01*
G01X47003Y-22193D01*
G01X47027Y-22175D01*
G01X47049Y-22155D01*
G01X47070Y-22134D01*
G01X47091Y-22112D01*
G01X47110Y-22089D01*
G01X47128Y-22065D01*
G01X47145Y-22040D01*
G01X47161Y-22015D01*
G01X47175Y-21989D01*
G01X47188Y-21962D01*
G01X47199Y-21934D01*
G01X47210Y-21906D01*
G01X47219Y-21877D01*
G01X47226Y-21848D01*
G01X47232Y-21819D01*
G01X47236Y-21790D01*
G01X47239Y-21760D01*
G01X47241Y-21730D01*
G01Y-21700D01*
G01X47239Y-21670D01*
G01X47236Y-21640D01*
G01X47232Y-21611D01*
G01X47226Y-21581D01*
G01X47219Y-21552D01*
G01X47210Y-21524D01*
G01X47199Y-21496D01*
G01X47188Y-21468D01*
G01X47175Y-21441D01*
G01X47161Y-21415D01*
G01X47145Y-21389D01*
G01X47128Y-21365D01*
G01X47110Y-21341D01*
G01X47091Y-21318D01*
G01X47070Y-21296D01*
G01X47049Y-21275D01*
G01X47027Y-21255D01*
G01X47003Y-21237D01*
G01X46979Y-21219D01*
G01X46954Y-21203D01*
G01X46928Y-21188D01*
G01X46901Y-21174D01*
G01X46874Y-21162D01*
G01X46846Y-21151D01*
G01X46818Y-21142D01*
G01X46789Y-21134D01*
G01X46760Y-21127D01*
G01X46730Y-21122D01*
G01X46701Y-21118D01*
G01X46671Y-21116D01*
G01X46641Y-21115D01*
G01X45841D01*
G01X45811Y-21116D01*
G01X45781Y-21118D01*
G01X45752Y-21122D01*
G01X45722Y-21127D01*
G01X45693Y-21134D01*
G01X45664Y-21142D01*
G01X45636Y-21151D01*
G01X45608Y-21162D01*
G01X45581Y-21174D01*
G01X45554Y-21188D01*
G01X45528Y-21203D01*
G01X45503Y-21219D01*
G01X45479Y-21237D01*
G01X45455Y-21255D01*
G01X45433Y-21275D01*
G01X45411Y-21296D01*
G01X45391Y-21318D01*
G01X45372Y-21341D01*
G01X45354Y-21365D01*
G01X45337Y-21389D01*
G01X45321Y-21415D01*
G01X45307Y-21441D01*
G01X45294Y-21468D01*
G01X45282Y-21496D01*
G01X45272Y-21524D01*
G01X45263Y-21552D01*
G01X45256Y-21581D01*
G01X45250Y-21611D01*
G01X45246Y-21640D01*
G01X45243Y-21670D01*
G37*
G36*
G01X49523Y-30310D02*
G01X49521Y-30340D01*
G01Y-30370D01*
G01X49523Y-30400D01*
G01X49526Y-30430D01*
G01X49530Y-30459D01*
G01X49536Y-30489D01*
G01X49543Y-30518D01*
G01X49552Y-30546D01*
G01X49563Y-30574D01*
G01X49574Y-30602D01*
G01X49587Y-30629D01*
G01X49601Y-30655D01*
G01X49617Y-30681D01*
G01X49634Y-30705D01*
G01X49652Y-30729D01*
G01X49671Y-30752D01*
G01X49692Y-30774D01*
G01X49713Y-30795D01*
G01X49735Y-30815D01*
G01X49759Y-30833D01*
G01X49783Y-30851D01*
G01X49808Y-30867D01*
G01X49834Y-30882D01*
G01X49861Y-30896D01*
G01X49888Y-30908D01*
G01X49916Y-30919D01*
G01X49944Y-30928D01*
G01X49973Y-30936D01*
G01X50002Y-30943D01*
G01X50032Y-30948D01*
G01X50061Y-30952D01*
G01X50091Y-30954D01*
G01X50121Y-30955D01*
G01X50721D01*
G01X50751Y-30954D01*
G01X50781Y-30952D01*
G01X50810Y-30948D01*
G01X50840Y-30943D01*
G01X50869Y-30936D01*
G01X50898Y-30928D01*
G01X50926Y-30919D01*
G01X50954Y-30908D01*
G01X50981Y-30896D01*
G01X51008Y-30882D01*
G01X51034Y-30867D01*
G01X51059Y-30851D01*
G01X51083Y-30833D01*
G01X51107Y-30815D01*
G01X51129Y-30795D01*
G01X51151Y-30774D01*
G01X51171Y-30752D01*
G01X51190Y-30729D01*
G01X51208Y-30705D01*
G01X51225Y-30681D01*
G01X51241Y-30655D01*
G01X51255Y-30629D01*
G01X51268Y-30602D01*
G01X51280Y-30574D01*
G01X51290Y-30546D01*
G01X51299Y-30518D01*
G01X51306Y-30489D01*
G01X51312Y-30459D01*
G01X51316Y-30430D01*
G01X51319Y-30400D01*
G01X51321Y-30370D01*
G01Y-30340D01*
G01X51319Y-30310D01*
G01X51316Y-30280D01*
G01X51312Y-30251D01*
G01X51306Y-30222D01*
G01X51299Y-30193D01*
G01X51290Y-30164D01*
G01X51280Y-30136D01*
G01X51268Y-30108D01*
G01X51255Y-30081D01*
G01X51241Y-30055D01*
G01X51225Y-30030D01*
G01X51208Y-30005D01*
G01X51190Y-29981D01*
G01X51171Y-29958D01*
G01X51151Y-29936D01*
G01X51129Y-29915D01*
G01X51107Y-29895D01*
G01X51083Y-29877D01*
G01X51059Y-29859D01*
G01X51034Y-29843D01*
G01X51008Y-29828D01*
G01X50981Y-29814D01*
G01X50954Y-29802D01*
G01X50926Y-29791D01*
G01X50898Y-29782D01*
G01X50869Y-29774D01*
G01X50840Y-29767D01*
G01X50810Y-29762D01*
G01X50781Y-29758D01*
G01X50751Y-29756D01*
G01X50721Y-29755D01*
G01X50121D01*
G01X50091Y-29756D01*
G01X50061Y-29758D01*
G01X50032Y-29762D01*
G01X50002Y-29767D01*
G01X49973Y-29774D01*
G01X49944Y-29782D01*
G01X49916Y-29791D01*
G01X49888Y-29802D01*
G01X49861Y-29814D01*
G01X49834Y-29828D01*
G01X49808Y-29843D01*
G01X49783Y-29859D01*
G01X49759Y-29877D01*
G01X49735Y-29895D01*
G01X49713Y-29915D01*
G01X49692Y-29936D01*
G01X49671Y-29958D01*
G01X49652Y-29981D01*
G01X49634Y-30005D01*
G01X49617Y-30030D01*
G01X49601Y-30055D01*
G01X49587Y-30081D01*
G01X49574Y-30108D01*
G01X49563Y-30136D01*
G01X49552Y-30164D01*
G01X49543Y-30193D01*
G01X49536Y-30222D01*
G01X49530Y-30251D01*
G01X49526Y-30280D01*
G01X49523Y-30310D01*
G37*
G36*
G01X49523Y-21670D02*
G01X49521Y-21700D01*
G01Y-21730D01*
G01X49523Y-21760D01*
G01X49526Y-21790D01*
G01X49530Y-21819D01*
G01X49536Y-21848D01*
G01X49543Y-21877D01*
G01X49552Y-21906D01*
G01X49563Y-21934D01*
G01X49574Y-21962D01*
G01X49587Y-21989D01*
G01X49601Y-22015D01*
G01X49617Y-22040D01*
G01X49634Y-22065D01*
G01X49652Y-22089D01*
G01X49671Y-22112D01*
G01X49692Y-22134D01*
G01X49713Y-22155D01*
G01X49735Y-22175D01*
G01X49759Y-22193D01*
G01X49783Y-22211D01*
G01X49808Y-22227D01*
G01X49834Y-22242D01*
G01X49861Y-22256D01*
G01X49888Y-22268D01*
G01X49916Y-22279D01*
G01X49944Y-22288D01*
G01X49973Y-22296D01*
G01X50002Y-22303D01*
G01X50032Y-22308D01*
G01X50061Y-22312D01*
G01X50091Y-22314D01*
G01X50121Y-22315D01*
G01X50721D01*
G01X50751Y-22314D01*
G01X50781Y-22312D01*
G01X50810Y-22308D01*
G01X50840Y-22303D01*
G01X50869Y-22296D01*
G01X50898Y-22288D01*
G01X50926Y-22279D01*
G01X50954Y-22268D01*
G01X50981Y-22256D01*
G01X51008Y-22242D01*
G01X51034Y-22227D01*
G01X51059Y-22211D01*
G01X51083Y-22193D01*
G01X51107Y-22175D01*
G01X51129Y-22155D01*
G01X51151Y-22134D01*
G01X51171Y-22112D01*
G01X51190Y-22089D01*
G01X51208Y-22065D01*
G01X51225Y-22040D01*
G01X51241Y-22015D01*
G01X51255Y-21989D01*
G01X51268Y-21962D01*
G01X51280Y-21934D01*
G01X51290Y-21906D01*
G01X51299Y-21877D01*
G01X51306Y-21848D01*
G01X51312Y-21819D01*
G01X51316Y-21790D01*
G01X51319Y-21760D01*
G01X51321Y-21730D01*
G01Y-21700D01*
G01X51319Y-21670D01*
G01X51316Y-21640D01*
G01X51312Y-21611D01*
G01X51306Y-21581D01*
G01X51299Y-21552D01*
G01X51290Y-21524D01*
G01X51280Y-21496D01*
G01X51268Y-21468D01*
G01X51255Y-21441D01*
G01X51241Y-21415D01*
G01X51225Y-21389D01*
G01X51208Y-21365D01*
G01X51190Y-21341D01*
G01X51171Y-21318D01*
G01X51151Y-21296D01*
G01X51129Y-21275D01*
G01X51107Y-21255D01*
G01X51083Y-21237D01*
G01X51059Y-21219D01*
G01X51034Y-21203D01*
G01X51008Y-21188D01*
G01X50981Y-21174D01*
G01X50954Y-21162D01*
G01X50926Y-21151D01*
G01X50898Y-21142D01*
G01X50869Y-21134D01*
G01X50840Y-21127D01*
G01X50810Y-21122D01*
G01X50781Y-21118D01*
G01X50751Y-21116D01*
G01X50721Y-21115D01*
G01X50121D01*
G01X50091Y-21116D01*
G01X50061Y-21118D01*
G01X50032Y-21122D01*
G01X50002Y-21127D01*
G01X49973Y-21134D01*
G01X49944Y-21142D01*
G01X49916Y-21151D01*
G01X49888Y-21162D01*
G01X49861Y-21174D01*
G01X49834Y-21188D01*
G01X49808Y-21203D01*
G01X49783Y-21219D01*
G01X49759Y-21237D01*
G01X49735Y-21255D01*
G01X49713Y-21275D01*
G01X49692Y-21296D01*
G01X49671Y-21318D01*
G01X49652Y-21341D01*
G01X49634Y-21365D01*
G01X49617Y-21389D01*
G01X49601Y-21415D01*
G01X49587Y-21441D01*
G01X49574Y-21468D01*
G01X49563Y-21496D01*
G01X49552Y-21524D01*
G01X49543Y-21552D01*
G01X49536Y-21581D01*
G01X49530Y-21611D01*
G01X49526Y-21640D01*
G01X49523Y-21670D01*
G37*
G36*
G01X44941Y-29535D02*
G01X46241Y-29535D01*
G01Y-29235D01*
G01Y-28935D01*
G01X44941D01*
G01Y-29235D01*
G01Y-29535D01*
G37*
G36*
G01X46241Y-25635D02*
G01X44941Y-25635D01*
G01Y-25935D01*
G01X46241D01*
G01Y-25635D01*
G37*
G36*
G01X46241Y-26635D02*
G01X44941Y-26635D01*
G01Y-26935D01*
G01X46241D01*
G01Y-26635D01*
G37*
G36*
G01X46241Y-28135D02*
G01X44941Y-28135D01*
G01Y-28435D01*
G01Y-28735D01*
G01X46241D01*
G01Y-28435D01*
G01Y-28135D01*
G37*
G36*
G01X44941Y-27435D02*
G01X46241Y-27435D01*
G01Y-27135D01*
G01X44941D01*
G01Y-27435D01*
G37*
G36*
G01X46241Y-22535D02*
G01X44941Y-22535D01*
G01Y-22835D01*
G01Y-23135D01*
G01X46241D01*
G01Y-22835D01*
G01Y-22535D01*
G37*
G36*
G01X44941Y-26435D02*
G01X46241Y-26435D01*
G01Y-26135D01*
G01X44941D01*
G01Y-26435D01*
G37*
G36*
G01X46241Y-24135D02*
G01X44941Y-24135D01*
G01Y-24435D01*
G01X46241D01*
G01Y-24135D01*
G37*
G36*
G01X44941Y-25435D02*
G01X46241Y-25435D01*
G01Y-25135D01*
G01X44941D01*
G01Y-25435D01*
G37*
G36*
G01X46241Y-24635D02*
G01X44941Y-24635D01*
G01Y-24935D01*
G01X46241D01*
G01Y-24635D01*
G37*
G36*
G01X46241Y-27635D02*
G01X44941Y-27635D01*
G01Y-27935D01*
G01X46241D01*
G01Y-27635D01*
G37*
G36*
G01X46241Y-23335D02*
G01X44941Y-23335D01*
G01Y-23635D01*
G01Y-23935D01*
G01X46241D01*
G01Y-23635D01*
G01Y-23335D01*
G37*
G36*
G01X43664Y-30394D02*
G01X43204Y-30394D01*
G01X43164Y-30434D01*
G01Y-31012D01*
G01X43204Y-31052D01*
G01X43664D01*
G01X43704Y-31012D01*
G01Y-30434D01*
G01X43664Y-30394D01*
G37*
G36*
G01X43664Y-30058D02*
G01X43204Y-30058D01*
G01X43164Y-30018D01*
G01Y-29440D01*
G01X43204Y-29400D01*
G01X43664D01*
G01X43704Y-29440D01*
G01Y-30018D01*
G01X43664Y-30058D01*
G37*
G36*
G01X25452Y-24061D02*
G01X24652Y-24061D01*
G01X24602Y-24111D01*
G01Y-24339D01*
G01X24972D01*
G01Y-24669D01*
G01X24602D01*
G01Y-24911D01*
G01X24652Y-24961D01*
G01X25452D01*
G01X25502Y-24911D01*
G01Y-24111D01*
G01X25452Y-24061D01*
G37*
G36*
G01X23902Y-24111D02*
G01X23902Y-24339D01*
G01X23522D01*
G01Y-24669D01*
G01X23902D01*
G01Y-24911D01*
G01X23852Y-24961D01*
G01X23062D01*
G01X23012Y-24911D01*
G01Y-24111D01*
G01X23062Y-24061D01*
G01X23852D01*
G01X23902Y-24111D01*
G37*
G36*
G01X40057Y-26093D02*
G01X39257Y-26093D01*
G01X39207Y-26143D01*
G01Y-26371D01*
G01X39577D01*
G01Y-26701D01*
G01X39207D01*
G01Y-26943D01*
G01X39257Y-26993D01*
G01X40057D01*
G01X40107Y-26943D01*
G01Y-26143D01*
G01X40057Y-26093D01*
G37*
G36*
G01X38507Y-26143D02*
G01X38507Y-26371D01*
G01X38127D01*
G01Y-26701D01*
G01X38507D01*
G01Y-26943D01*
G01X38457Y-26993D01*
G01X37667D01*
G01X37617Y-26943D01*
G01Y-26143D01*
G01X37667Y-26093D01*
G01X38457D01*
G01X38507Y-26143D01*
G37*
G36*
G01X37667Y-22167D02*
G01X38467Y-22167D01*
G01X38517Y-22117D01*
G01Y-21889D01*
G01X38147D01*
G01Y-21559D01*
G01X38517D01*
G01Y-21317D01*
G01X38467Y-21267D01*
G01X37667D01*
G01X37617Y-21317D01*
G01Y-22117D01*
G01X37667Y-22167D01*
G37*
G36*
G01X39217Y-22117D02*
G01X39217Y-21889D01*
G01X39597D01*
G01Y-21559D01*
G01X39217D01*
G01Y-21317D01*
G01X39267Y-21267D01*
G01X40057D01*
G01X40107Y-21317D01*
G01Y-22117D01*
G01X40057Y-22167D01*
G01X39267D01*
G01X39217Y-22117D01*
G37*
G36*
G01X43867Y-27744D02*
G01X43067Y-27744D01*
G01X43017Y-27794D01*
G01Y-28022D01*
G01X43387D01*
G01Y-28352D01*
G01X43017D01*
G01Y-28594D01*
G01X43067Y-28644D01*
G01X43867D01*
G01X43917Y-28594D01*
G01Y-27794D01*
G01X43867Y-27744D01*
G37*
G36*
G01X42317Y-27794D02*
G01X42317Y-28022D01*
G01X41937D01*
G01Y-28352D01*
G01X42317D01*
G01Y-28594D01*
G01X42267Y-28644D01*
G01X41477D01*
G01X41427Y-28594D01*
G01Y-27794D01*
G01X41477Y-27744D01*
G01X42267D01*
G01X42317Y-27794D01*
G37*
G36*
G01X40057Y-27617D02*
G01X39257Y-27617D01*
G01X39207Y-27667D01*
G01Y-27895D01*
G01X39577D01*
G01Y-28225D01*
G01X39207D01*
G01Y-28467D01*
G01X39257Y-28517D01*
G01X40057D01*
G01X40107Y-28467D01*
G01Y-27667D01*
G01X40057Y-27617D01*
G37*
G36*
G01X38507Y-27667D02*
G01X38507Y-27895D01*
G01X38127D01*
G01Y-28225D01*
G01X38507D01*
G01Y-28467D01*
G01X38457Y-28517D01*
G01X37667D01*
G01X37617Y-28467D01*
G01Y-27667D01*
G01X37667Y-27617D01*
G01X38457D01*
G01X38507Y-27667D01*
G37*
G36*
G01X41680Y-30312D02*
G01X42140Y-30312D01*
G01X42180Y-30272D01*
G01Y-29694D01*
G01X42140Y-29654D01*
G01X41680D01*
G01X41640Y-29694D01*
G01Y-30272D01*
G01X41680Y-30312D01*
G37*
G36*
G01X41680Y-30648D02*
G01X42140Y-30648D01*
G01X42180Y-30688D01*
G01Y-31266D01*
G01X42140Y-31306D01*
G01X41680D01*
G01X41640Y-31266D01*
G01Y-30688D01*
G01X41680Y-30648D01*
G37*
G04 PolygonModel End*

G04 Pad Start*
G54D10*
G01X21401Y-24892D03*
G01X20001Y-24892D03*
G01X21401Y-26670D03*
G01X20001Y-26670D03*
G01X21401Y-23114D03*
G01X20001Y-23114D03*
G01X24957Y-21463D03*
G01X23557Y-21463D03*
G54D11*
G01X38162Y-24892D03*
G01X39562Y-24892D03*
G54D10*
G01X24957Y-30226D03*
G01X23557Y-30226D03*
G54D11*
G01X38162Y-31242D03*
G01X39562Y-31242D03*
G54D12*
G01X17222Y-27402D03*
G01X17222Y-26152D03*
G01X17222Y-24902D03*
G01X17222Y-23652D03*
G54D13*
G01X14020Y-29252D03*
G01X14020Y-21802D03*
G54D14*
G01X27754Y-23412D03*
G01X27754Y-23912D03*
G01X27754Y-24412D03*
G01X27754Y-24912D03*
G01X27754Y-25412D03*
G01X27754Y-25912D03*
G01X27754Y-26412D03*
G01X27754Y-26912D03*
G01X27754Y-27412D03*
G01X27754Y-27912D03*
G01X27754Y-28412D03*
G01X27754Y-28912D03*
G54D15*
G01X29254Y-30412D03*
G01X29754Y-30412D03*
G01X30254Y-30412D03*
G01X30754Y-30412D03*
G01X31254Y-30412D03*
G01X31754Y-30412D03*
G01X32254Y-30412D03*
G01X32754Y-30412D03*
G01X33254Y-30412D03*
G01X33754Y-30412D03*
G01X34254Y-30412D03*
G01X34754Y-30412D03*
G54D14*
G01X36254Y-28912D03*
G01X36254Y-28412D03*
G01X36254Y-27912D03*
G01X36254Y-27412D03*
G01X36254Y-26912D03*
G01X36254Y-26412D03*
G01X36254Y-25912D03*
G01X36254Y-25412D03*
G01X36254Y-24912D03*
G01X36254Y-24412D03*
G01X36254Y-23912D03*
G01X36254Y-23412D03*
G54D15*
G01X34754Y-21912D03*
G01X34254Y-21912D03*
G01X33754Y-21912D03*
G01X33254Y-21912D03*
G01X32754Y-21912D03*
G01X32254Y-21912D03*
G01X31754Y-21912D03*
G01X31254Y-21912D03*
G01X30754Y-21912D03*
G01X30254Y-21912D03*
G01X29754Y-21912D03*
G01X29254Y-21912D03*
G54D11*
G01X41972Y-26543D03*
G01X43372Y-26543D03*
G54D10*
G01X43372Y-21336D03*
G01X41972Y-21336D03*
G54D16*
G01X43518Y-23876D03*
G01X43518Y-22926D03*
G01X43518Y-24826D03*
G01X41318Y-22926D03*
G01X41318Y-24826D03*
G54D18*
G01X24257Y-28001D03*
G01X24257Y-26101D03*
G04 Pad End*

M02*
