G04 Layer: DrillDrawingLayer*
G04 EasyEDA Pro v2.0.15, 2023-03-15 12:21:30*
G04 Gerber Generator version 0.3*
G04 Scale: 100 percent, Rotated: No, Reflected: No*
G04 Dimensions in millimeters*
G04 Leading zeros omitted, absolute positions, 3 integers and 3 decimals*
%FSLAX33Y33*%
%MOMM*%
%ADD10C,0.254*%
G75*


G04 Image Start*
G36*
G01X50222Y-30155D02*
G01X50222Y-30192D01*
G01X50258D01*
G01X50584D01*
G01Y-30518D01*
G01X50258D01*
G01Y-30192D01*
G01X50222D01*
G01Y-30554D01*
G01X50621D01*
G01Y-30155D01*
G37*
G36*
G01X50221Y-21515D02*
G01X50221Y-21552D01*
G01X50258D01*
G01X50584D01*
G01Y-21878D01*
G01X50258D01*
G01Y-21552D01*
G01X50221D01*
G01Y-21914D01*
G01X50620D01*
G01Y-21515D01*
G37*
G36*
G01X46241Y-21516D02*
G01X46221Y-21517D01*
G01X46201Y-21520D01*
G01X46182Y-21524D01*
G01X46163Y-21531D01*
G01X46146Y-21540D01*
G01X46129Y-21550D01*
G01X46114Y-21561D01*
G01X46100Y-21574D01*
G01X46087Y-21588D01*
G01X46076Y-21604D01*
G01X46066Y-21620D01*
G01X46057Y-21637D01*
G01X46051Y-21656D01*
G01X46046Y-21675D01*
G01X46043Y-21695D01*
G01X46042Y-21715D01*
G01X46075D01*
G01X46076Y-21698D01*
G01X46078Y-21681D01*
G01X46082Y-21666D01*
G01X46088Y-21650D01*
G01X46095Y-21636D01*
G01X46104Y-21622D01*
G01X46113Y-21609D01*
G01X46124Y-21598D01*
G01X46136Y-21587D01*
G01X46148Y-21577D01*
G01X46162Y-21569D01*
G01X46177Y-21562D01*
G01X46192Y-21556D01*
G01X46208Y-21552D01*
G01X46224Y-21550D01*
G01X46241Y-21549D01*
G01X46258Y-21550D01*
G01X46275Y-21552D01*
G01X46290Y-21556D01*
G01X46306Y-21562D01*
G01X46320Y-21569D01*
G01X46334Y-21577D01*
G01X46347Y-21587D01*
G01X46359Y-21598D01*
G01X46369Y-21609D01*
G01X46379Y-21622D01*
G01X46387Y-21636D01*
G01X46394Y-21650D01*
G01X46400Y-21666D01*
G01X46404Y-21681D01*
G01X46406Y-21698D01*
G01X46407Y-21715D01*
G01X46406Y-21732D01*
G01X46404Y-21748D01*
G01X46400Y-21764D01*
G01X46394Y-21779D01*
G01X46387Y-21794D01*
G01X46379Y-21808D01*
G01X46369Y-21821D01*
G01X46359Y-21832D01*
G01X46347Y-21843D01*
G01X46334Y-21853D01*
G01X46320Y-21861D01*
G01X46306Y-21868D01*
G01X46290Y-21874D01*
G01X46275Y-21878D01*
G01X46258Y-21881D01*
G01X46241D01*
G01X46224D01*
G01X46208Y-21878D01*
G01X46192Y-21874D01*
G01X46177Y-21868D01*
G01X46162Y-21861D01*
G01X46148Y-21853D01*
G01X46136Y-21843D01*
G01X46124Y-21832D01*
G01X46113Y-21821D01*
G01X46104Y-21808D01*
G01X46095Y-21794D01*
G01X46088Y-21779D01*
G01X46082Y-21764D01*
G01X46078Y-21748D01*
G01X46076Y-21732D01*
G01X46075Y-21715D01*
G01X46042D01*
G01X46043Y-21735D01*
G01X46046Y-21755D01*
G01X46051Y-21774D01*
G01X46057Y-21793D01*
G01X46066Y-21810D01*
G01X46076Y-21827D01*
G01X46087Y-21842D01*
G01X46100Y-21856D01*
G01X46114Y-21869D01*
G01X46129Y-21881D01*
G01X46146Y-21890D01*
G01X46163Y-21899D01*
G01X46182Y-21905D01*
G01X46201Y-21911D01*
G01X46221Y-21914D01*
G01X46241Y-21915D01*
G01X46262Y-21914D01*
G01X46281Y-21911D01*
G01X46301Y-21905D01*
G01X46319Y-21899D01*
G01X46336Y-21890D01*
G01X46352Y-21881D01*
G01X46368Y-21869D01*
G01X46382Y-21856D01*
G01X46395Y-21842D01*
G01X46406Y-21827D01*
G01X46416Y-21810D01*
G01X46425Y-21793D01*
G01X46432Y-21774D01*
G01X46436Y-21755D01*
G01X46439Y-21735D01*
G01X46440Y-21715D01*
G01X46439Y-21695D01*
G01X46436Y-21675D01*
G01X46432Y-21656D01*
G01X46425Y-21637D01*
G01X46416Y-21620D01*
G01X46406Y-21604D01*
G01X46395Y-21588D01*
G01X46382Y-21574D01*
G01X46368Y-21561D01*
G01X46352Y-21550D01*
G01X46336Y-21540D01*
G01X46319Y-21531D01*
G01X46301Y-21524D01*
G01X46281Y-21520D01*
G01X46262Y-21517D01*
G37*
G36*
G01X46241Y-30155D02*
G01X46221Y-30156D01*
G01X46201Y-30159D01*
G01X46182Y-30165D01*
G01X46163Y-30171D01*
G01X46146Y-30180D01*
G01X46129Y-30189D01*
G01X46114Y-30201D01*
G01X46100Y-30214D01*
G01X46087Y-30228D01*
G01X46076Y-30243D01*
G01X46066Y-30260D01*
G01X46057Y-30277D01*
G01X46051Y-30296D01*
G01X46046Y-30315D01*
G01X46043Y-30335D01*
G01X46042Y-30355D01*
G01X46075D01*
G01X46076Y-30338D01*
G01X46078Y-30322D01*
G01X46082Y-30306D01*
G01X46088Y-30291D01*
G01X46095Y-30276D01*
G01X46104Y-30262D01*
G01X46113Y-30249D01*
G01X46124Y-30238D01*
G01X46136Y-30227D01*
G01X46148Y-30217D01*
G01X46162Y-30209D01*
G01X46177Y-30202D01*
G01X46192Y-30197D01*
G01X46208Y-30192D01*
G01X46224Y-30190D01*
G01X46241Y-30189D01*
G01X46258Y-30190D01*
G01X46275Y-30192D01*
G01X46290Y-30197D01*
G01X46306Y-30202D01*
G01X46320Y-30209D01*
G01X46334Y-30217D01*
G01X46347Y-30227D01*
G01X46359Y-30238D01*
G01X46369Y-30249D01*
G01X46379Y-30262D01*
G01X46387Y-30276D01*
G01X46394Y-30291D01*
G01X46400Y-30306D01*
G01X46404Y-30322D01*
G01X46406Y-30338D01*
G01X46407Y-30355D01*
G01X46406Y-30372D01*
G01X46404Y-30389D01*
G01X46400Y-30404D01*
G01X46394Y-30420D01*
G01X46387Y-30434D01*
G01X46379Y-30448D01*
G01X46369Y-30461D01*
G01X46359Y-30472D01*
G01X46347Y-30483D01*
G01X46334Y-30493D01*
G01X46320Y-30501D01*
G01X46306Y-30508D01*
G01X46290Y-30514D01*
G01X46275Y-30518D01*
G01X46258Y-30520D01*
G01X46241Y-30521D01*
G01X46224Y-30520D01*
G01X46208Y-30518D01*
G01X46192Y-30514D01*
G01X46177Y-30508D01*
G01X46162Y-30501D01*
G01X46148Y-30493D01*
G01X46136Y-30483D01*
G01X46124Y-30472D01*
G01X46113Y-30461D01*
G01X46104Y-30448D01*
G01X46095Y-30434D01*
G01X46088Y-30420D01*
G01X46082Y-30404D01*
G01X46078Y-30389D01*
G01X46076Y-30372D01*
G01X46075Y-30355D01*
G01X46042D01*
G01X46043Y-30375D01*
G01X46046Y-30395D01*
G01X46051Y-30414D01*
G01X46057Y-30433D01*
G01X46066Y-30450D01*
G01X46076Y-30466D01*
G01X46087Y-30482D01*
G01X46100Y-30496D01*
G01X46114Y-30509D01*
G01X46129Y-30520D01*
G01X46146Y-30530D01*
G01X46163Y-30539D01*
G01X46182Y-30546D01*
G01X46201Y-30550D01*
G01X46221Y-30553D01*
G01X46241Y-30554D01*
G01X46262Y-30553D01*
G01X46281Y-30550D01*
G01X46301Y-30546D01*
G01X46319Y-30539D01*
G01X46336Y-30530D01*
G01X46352Y-30520D01*
G01X46368Y-30509D01*
G01X46382Y-30496D01*
G01X46395Y-30482D01*
G01X46406Y-30466D01*
G01X46416Y-30450D01*
G01X46425Y-30433D01*
G01X46432Y-30414D01*
G01X46436Y-30395D01*
G01X46439Y-30375D01*
G01X46440Y-30355D01*
G01X46439Y-30335D01*
G01X46436Y-30315D01*
G01X46432Y-30296D01*
G01X46425Y-30277D01*
G01X46416Y-30260D01*
G01X46406Y-30243D01*
G01X46395Y-30228D01*
G01X46382Y-30214D01*
G01X46368Y-30201D01*
G01X46352Y-30189D01*
G01X46336Y-30180D01*
G01X46319Y-30171D01*
G01X46301Y-30165D01*
G01X46281Y-30159D01*
G01X46262Y-30156D01*
G37*
G36*
G01X33456Y-25100D02*
G01X33475Y-25134D01*
G01X33513D01*
G01X33797D01*
G01X33726Y-25256D01*
G01X33655Y-25379D01*
G01X33584Y-25256D01*
G01X33513Y-25134D01*
G01X33475D01*
G01X33655Y-25446D01*
G01X33755Y-25273D01*
G01X33855Y-25100D01*
G37*
G36*
G01X28249Y-30942D02*
G01X28268Y-30976D01*
G01X28306D01*
G01X28590D01*
G01X28519Y-31098D01*
G01X28448Y-31221D01*
G01X28377Y-31098D01*
G01X28306Y-30976D01*
G01X28268D01*
G01X28448Y-31288D01*
G01X28548Y-31115D01*
G01X28648Y-30942D01*
G37*
G36*
G01X20502Y-25608D02*
G01X20521Y-25642D01*
G01X20559D01*
G01X20843D01*
G01X20772Y-25764D01*
G01X20701Y-25887D01*
G01X20630Y-25764D01*
G01X20559Y-25642D01*
G01X20521D01*
G01X20701Y-25954D01*
G01X20801Y-25781D01*
G01X20901Y-25608D01*
G37*
G36*
G01X13770Y-20147D02*
G01X13790Y-20181D01*
G01X13828D01*
G01X14112D01*
G01X14041Y-20303D01*
G01X13970Y-20426D01*
G01X13899Y-20303D01*
G01X13828Y-20181D01*
G01X13790D01*
G01X13870Y-20320D01*
G01X13970Y-20493D01*
G01X14070Y-20320D01*
G01X14170Y-20147D01*
G37*
G36*
G01X42219Y-23703D02*
G01X42238Y-23737D01*
G01X42276D01*
G01X42560D01*
G01X42489Y-23859D01*
G01X42418Y-23982D01*
G01X42347Y-23859D01*
G01X42276Y-23737D01*
G01X42238D01*
G01X42418Y-24049D01*
G01X42518Y-23876D01*
G01X42618Y-23703D01*
G37*
G36*
G01X34218Y-23576D02*
G01X34237Y-23610D01*
G01X34275D01*
G01X34559D01*
G01X34488Y-23732D01*
G01X34417Y-23855D01*
G01X34346Y-23732D01*
G01X34275Y-23610D01*
G01X34237D01*
G01X34417Y-23922D01*
G01X34517Y-23749D01*
G01X34617Y-23576D01*
G37*
G36*
G01X35996Y-22687D02*
G01X36015Y-22721D01*
G01X36053D01*
G01X36337D01*
G01X36266Y-22843D01*
G01X36195Y-22966D01*
G01X36124Y-22843D01*
G01X36053Y-22721D01*
G01X36015D01*
G01X36195Y-23033D01*
G01X36295Y-22860D01*
G01X36395Y-22687D01*
G37*
G36*
G01X22153Y-28275D02*
G01X22172Y-28309D01*
G01X22210D01*
G01X22494D01*
G01X22423Y-28431D01*
G01X22352Y-28554D01*
G01X22281Y-28431D01*
G01X22210Y-28309D01*
G01X22172D01*
G01X22352Y-28621D01*
G01X22452Y-28448D01*
G01X22552Y-28275D01*
G37*
G36*
G01X15675Y-22560D02*
G01X15695Y-22594D01*
G01X15733D01*
G01X16017D01*
G01X15946Y-22716D01*
G01X15875Y-22839D01*
G01X15804Y-22716D01*
G01X15733Y-22594D01*
G01X15695D01*
G01X15775Y-22733D01*
G01X15875Y-22906D01*
G01X15975Y-22733D01*
G01X16075Y-22560D01*
G37*
G36*
G01X15675Y-27259D02*
G01X15695Y-27293D01*
G01X15733D01*
G01X16017D01*
G01X15946Y-27415D01*
G01X15875Y-27538D01*
G01X15804Y-27415D01*
G01X15733Y-27293D01*
G01X15695D01*
G01X15775Y-27432D01*
G01X15875Y-27605D01*
G01X15975Y-27432D01*
G01X16075Y-27259D01*
G37*
G36*
G01X31551Y-22941D02*
G01X31570Y-22975D01*
G01X31608D01*
G01X31892D01*
G01X31821Y-23097D01*
G01X31750Y-23220D01*
G01X31679Y-23097D01*
G01X31608Y-22975D01*
G01X31570D01*
G01X31750Y-23287D01*
G01X31850Y-23114D01*
G01X31950Y-22941D01*
G37*
G36*
G01X36266Y-31069D02*
G01X36285Y-31103D01*
G01X36324D01*
G01X36607D01*
G01X36536Y-31225D01*
G01X36465Y-31348D01*
G01X36395Y-31225D01*
G01X36324Y-31103D01*
G01X36285D01*
G01X36465Y-31415D01*
G01X36565Y-31242D01*
G01X36665Y-31069D01*
G37*
G36*
G01X40658Y-26370D02*
G01X40678Y-26404D01*
G01X40716D01*
G01X41000D01*
G01X40929Y-26526D01*
G01X40858Y-26649D01*
G01X40787Y-26526D01*
G01X40716Y-26404D01*
G01X40678D01*
G01X40758Y-26543D01*
G01X40858Y-26716D01*
G01X41057Y-26370D01*
G37*
G36*
G01X30408Y-26624D02*
G01X30427Y-26658D01*
G01X30465D01*
G01X30749D01*
G01X30678Y-26780D01*
G01X30607Y-26903D01*
G01X30536Y-26780D01*
G01X30465Y-26658D01*
G01X30427D01*
G01X30607Y-26970D01*
G01X30707Y-26797D01*
G01X30807Y-26624D01*
G37*
G36*
G01X29646Y-25227D02*
G01X29665Y-25261D01*
G01X29703D01*
G01X29987D01*
G01X29916Y-25383D01*
G01X29845Y-25506D01*
G01X29774Y-25383D01*
G01X29703Y-25261D01*
G01X29665D01*
G01X29845Y-25573D01*
G01X29945Y-25400D01*
G01X30045Y-25227D01*
G37*
G36*
G01X31043Y-24592D02*
G01X31062Y-24626D01*
G01X31100D01*
G01X31384D01*
G01X31313Y-24748D01*
G01X31242Y-24871D01*
G01X31171Y-24748D01*
G01X31100Y-24626D01*
G01X31062D01*
G01X31242Y-24938D01*
G01X31342Y-24765D01*
G01X31442Y-24592D01*
G37*
G36*
G01X29646Y-24592D02*
G01X29665Y-24626D01*
G01X29703D01*
G01X29987D01*
G01X29916Y-24748D01*
G01X29845Y-24871D01*
G01X29774Y-24748D01*
G01X29703Y-24626D01*
G01X29665D01*
G01X29845Y-24938D01*
G01X29945Y-24765D01*
G01X30045Y-24592D01*
G37*
G36*
G01X18343Y-23449D02*
G01X18362Y-23483D01*
G01X18400D01*
G01X18684D01*
G01X18613Y-23605D01*
G01X18542Y-23728D01*
G01X18471Y-23605D01*
G01X18400Y-23483D01*
G01X18362D01*
G01X18542Y-23795D01*
G01X18642Y-23622D01*
G01X18742Y-23449D01*
G37*
G36*
G01X17708Y-21671D02*
G01X17727Y-21705D01*
G01X17765D01*
G01X18049D01*
G01X17978Y-21827D01*
G01X17907Y-21950D01*
G01X17836Y-21827D01*
G01X17765Y-21705D01*
G01X17727D01*
G01X17907Y-22017D01*
G01X18007Y-21844D01*
G01X18107Y-21671D01*
G37*
G36*
G01X29519Y-23957D02*
G01X29538Y-23991D01*
G01X29576D01*
G01X29860D01*
G01X29789Y-24113D01*
G01X29718Y-24236D01*
G01X29647Y-24113D01*
G01X29576Y-23991D01*
G01X29538D01*
G01X29718Y-24303D01*
G01X29818Y-24130D01*
G01X29918Y-23957D01*
G37*
G36*
G01X28884Y-23195D02*
G01X28903Y-23229D01*
G01X28941D01*
G01X29225D01*
G01X29154Y-23351D01*
G01X29083Y-23474D01*
G01X29012Y-23351D01*
G01X28941Y-23229D01*
G01X28903D01*
G01X29083Y-23541D01*
G01X29183Y-23368D01*
G01X29283Y-23195D01*
G37*
G36*
G01X22153Y-21290D02*
G01X22172Y-21324D01*
G01X22210D01*
G01X22494D01*
G01X22423Y-21446D01*
G01X22352Y-21569D01*
G01X22281Y-21446D01*
G01X22210Y-21324D01*
G01X22172D01*
G01X22352Y-21636D01*
G01X22452Y-21463D01*
G01X22552Y-21290D01*
G37*
G36*
G01X44378Y-25100D02*
G01X44397Y-25134D01*
G01X44435D01*
G01X44719D01*
G01X44648Y-25256D01*
G01X44577Y-25379D01*
G01X44506Y-25256D01*
G01X44435Y-25134D01*
G01X44397D01*
G01X44577Y-25446D01*
G01X44677Y-25273D01*
G01X44777Y-25100D01*
G37*
G36*
G01X44378Y-25799D02*
G01X44397Y-25833D01*
G01X44435D01*
G01X44719D01*
G01X44648Y-25955D01*
G01X44577Y-26078D01*
G01X44506Y-25955D01*
G01X44435Y-25833D01*
G01X44397D01*
G01X44577Y-26145D01*
G01X44677Y-25972D01*
G01X44777Y-25799D01*
G37*
G36*
G01X44290Y-23038D02*
G01X44309Y-23071D01*
G01X44348D01*
G01X44632D01*
G01X44490Y-23317D01*
G01X44419Y-23194D01*
G01X44348Y-23071D01*
G01X44309D01*
G01X44490Y-23383D01*
G01X44590Y-23211D01*
G01X44689Y-23038D01*
G37*
G36*
G01X26344Y-28910D02*
G01X26363Y-28944D01*
G01X26401D01*
G01X26685D01*
G01X26614Y-29066D01*
G01X26543Y-29189D01*
G01X26472Y-29066D01*
G01X26401Y-28944D01*
G01X26363D01*
G01X26543Y-29256D01*
G01X26643Y-29083D01*
G01X26743Y-28910D01*
G37*
G36*
G01X18978Y-27259D02*
G01X18997Y-27293D01*
G01X19035D01*
G01X19319D01*
G01X19248Y-27415D01*
G01X19177Y-27538D01*
G01X19106Y-27415D01*
G01X19035Y-27293D01*
G01X18997D01*
G01X19177Y-27605D01*
G01X19277Y-27432D01*
G01X19377Y-27259D01*
G37*
G36*
G01X15294Y-24719D02*
G01X15314Y-24753D01*
G01X15352D01*
G01X15636D01*
G01X15565Y-24875D01*
G01X15494Y-24998D01*
G01X15423Y-24875D01*
G01X15352Y-24753D01*
G01X15314D01*
G01X15394Y-24892D01*
G01X15494Y-25065D01*
G01X15594Y-24892D01*
G01X15694Y-24719D01*
G37*
G36*
G01X17708Y-28656D02*
G01X17727Y-28690D01*
G01X17765D01*
G01X18049D01*
G01X17978Y-28812D01*
G01X17907Y-28935D01*
G01X17836Y-28812D01*
G01X17765Y-28690D01*
G01X17727D01*
G01X17907Y-29002D01*
G01X18007Y-28829D01*
G01X18107Y-28656D01*
G37*
G36*
G01X32313Y-26624D02*
G01X32332Y-26658D01*
G01X32370D01*
G01X32654D01*
G01X32583Y-26780D01*
G01X32512Y-26903D01*
G01X32441Y-26780D01*
G01X32370Y-26658D01*
G01X32332D01*
G01X32512Y-26970D01*
G01X32612Y-26797D01*
G01X32712Y-26624D01*
G37*
G36*
G01X22280Y-22814D02*
G01X22299Y-22848D01*
G01X22337D01*
G01X22621D01*
G01X22550Y-22970D01*
G01X22479Y-23093D01*
G01X22408Y-22970D01*
G01X22337Y-22848D01*
G01X22299D01*
G01X22479Y-23160D01*
G01X22579Y-22987D01*
G01X22679Y-22814D01*
G37*
G36*
G01X28884Y-26878D02*
G01X28903Y-26912D01*
G01X28941D01*
G01X29225D01*
G01X29154Y-27034D01*
G01X29083Y-27157D01*
G01X29012Y-27034D01*
G01X28941Y-26912D01*
G01X28903D01*
G01X29083Y-27224D01*
G01X29183Y-27051D01*
G01X29283Y-26878D01*
G37*
G36*
G01X16946Y-31196D02*
G01X16965Y-31230D01*
G01X17003D01*
G01X17287D01*
G01X17216Y-31352D01*
G01X17145Y-31475D01*
G01X17074Y-31352D01*
G01X17003Y-31230D01*
G01X16965D01*
G01X17145Y-31542D01*
G01X17245Y-31369D01*
G01X17345Y-31196D01*
G37*
G36*
G01X13389Y-30942D02*
G01X13409Y-30976D01*
G01X13447D01*
G01X13731D01*
G01X13660Y-31098D01*
G01X13589Y-31221D01*
G01X13518Y-31098D01*
G01X13447Y-30976D01*
G01X13409D01*
G01X13489Y-31115D01*
G01X13589Y-31288D01*
G01X13689Y-31115D01*
G01X13789Y-30942D01*
G37*
G36*
G01X34345Y-24707D02*
G01X34364Y-24740D01*
G01X34402D01*
G01X34686D01*
G01X34615Y-24863D01*
G01X34544Y-24985D01*
G01X34473Y-24863D01*
G01X34402Y-24740D01*
G01X34364D01*
G01X34544Y-25052D01*
G01X34644Y-24879D01*
G01X34744Y-24707D01*
G37*
G36*
G01X32555Y-32085D02*
G01X32574Y-32119D01*
G01X32612D01*
G01X32896D01*
G01X32825Y-32241D01*
G01X32754Y-32364D01*
G01X32683Y-32241D01*
G01X32612Y-32119D01*
G01X32574D01*
G01X32654Y-32258D01*
G01X32754Y-32431D01*
G01X32953Y-32085D01*
G37*
G36*
G01X34055Y-32085D02*
G01X34074Y-32119D01*
G01X34112D01*
G01X34396D01*
G01X34325Y-32241D01*
G01X34254Y-32364D01*
G01X34183Y-32241D01*
G01X34112Y-32119D01*
G01X34074D01*
G01X34254Y-32431D01*
G01X34354Y-32258D01*
G01X34454Y-32085D01*
G37*
G36*
G01X26285Y-30239D02*
G01X26304Y-30273D01*
G01X26342D01*
G01X26626D01*
G01X26555Y-30395D01*
G01X26484Y-30518D01*
G01X26413Y-30395D01*
G01X26342Y-30273D01*
G01X26304D01*
G01X26484Y-30585D01*
G01X26584Y-30412D01*
G01X26684Y-30239D01*
G37*
G36*
G01X40568Y-29418D02*
G01X40587Y-29452D01*
G01X40625D01*
G01X40909D01*
G01X40838Y-29574D01*
G01X40767Y-29697D01*
G01X40696Y-29574D01*
G01X40625Y-29452D01*
G01X40587D01*
G01X40767Y-29764D01*
G01X40867Y-29591D01*
G01X40967Y-29418D01*
G37*
G36*
G01X36055Y-29418D02*
G01X36074Y-29452D01*
G01X36112D01*
G01X36396D01*
G01X36325Y-29574D01*
G01X36254Y-29697D01*
G01X36183Y-29574D01*
G01X36112Y-29452D01*
G01X36074D01*
G01X36254Y-29764D01*
G01X36353Y-29591D01*
G01X36454Y-29418D01*
G37*
G36*
G01X26598Y-22179D02*
G01X26617Y-22213D01*
G01X26655D01*
G01X26939D01*
G01X26868Y-22335D01*
G01X26797Y-22458D01*
G01X26726Y-22335D01*
G01X26655Y-22213D01*
G01X26617D01*
G01X26797Y-22525D01*
G01X26897Y-22352D01*
G01X26997Y-22179D01*
G37*
G36*
G01X39552Y-21671D02*
G01X39571Y-21705D01*
G01X39609D01*
G01X39893D01*
G01X39822Y-21827D01*
G01X39751Y-21950D01*
G01X39680Y-21827D01*
G01X39609Y-21705D01*
G01X39571D01*
G01X39751Y-22017D01*
G01X39851Y-21844D01*
G01X39951Y-21671D01*
G37*
G36*
G01X36885Y-30180D02*
G01X36904Y-30214D01*
G01X36942D01*
G01X37226D01*
G01X37155Y-30336D01*
G01X37084Y-30459D01*
G01X37013Y-30336D01*
G01X36942Y-30214D01*
G01X36904D01*
G01X37084Y-30526D01*
G01X37184Y-30353D01*
G01X37284Y-30180D01*
G37*
G04 Image End*
G54D10*

M02*
