G04 Layer: TopSolderMaskLayer*
G04 EasyEDA Pro v2.0.15, 2023-03-15 12:21:30*
G04 Gerber Generator version 0.3*
G04 Scale: 100 percent, Rotated: No, Reflected: No*
G04 Dimensions in millimeters*
G04 Leading zeros omitted, absolute positions, 3 integers and 3 decimals*
%FSLAX33Y33*%
%MOMM*%
%AMRoundRect*1,1,$1,$2,$3*1,1,$1,$4,$5*1,1,$1,0-$2,0-$3*1,1,$1,0-$4,0-$5*20,1,$1,$2,$3,$4,$5,0*20,1,$1,$4,$5,0-$2,0-$3,0*20,1,$1,0-$2,0-$3,0-$4,0-$5,0*20,1,$1,0-$4,0-$5,$2,$3,0*4,1,4,$2,$3,$4,$5,0-$2,0-$3,0-$4,0-$5,$2,$3,0*%
%ADD10RoundRect,0.1016X-0.403238X0.432003X0.403238X0.432003*%
%ADD11RoundRect,0.1016X-0.399999X0.449999X0.399999X0.449999*%
%ADD12RoundRect,0.1016X0.403238X-0.432003X-0.403238X-0.432003*%
%ADD13RoundRect,0.1016X0.399999X-0.449999X-0.399999X-0.449999*%
%ADD14RoundRect,0.100025X-0.849998X-0.299999X-0.849998X0.299999*%
%ADD15RoundRect,0.100025X-1.349997X-0.499999X-1.349997X0.499999*%
%ADD16RoundRect,0.1X-0.649999X-0.15X-0.649999X0.15*%
%ADD17O,1.901596X1.301598*%
%ADD18O,2.101596X1.301598*%
%ADD19RoundRect,0.1016X-0.270002X-0.318237X-0.270002X0.318237*%
%ADD20O,1.600022X0.370027*%
%ADD21O,0.370027X1.600022*%
%ADD22RoundRect,0.1016X0.270002X0.318237X0.270002X-0.318237*%
%ADD23RoundRect,0.100025X-0.499999X-0.299999X-0.499999X0.299999*%
%ADD24RoundRect,0.1016X1.349997X0.749999X1.349997X-0.749998*%
G75*


G04 Pad Start*
G54D10*
G01X25010Y-23114D03*
G01X23504Y-23114D03*
G54D11*
G01X21401Y-24892D03*
G01X20001Y-24892D03*
G01X21401Y-26670D03*
G01X20001Y-26670D03*
G54D12*
G01X19948Y-21463D03*
G01X21454Y-21463D03*
G54D11*
G01X21401Y-23114D03*
G01X20001Y-23114D03*
G54D12*
G01X19948Y-28321D03*
G01X21454Y-28321D03*
G54D10*
G01X21454Y-29845D03*
G01X19948Y-29845D03*
G01X39615Y-23241D03*
G01X38109Y-23241D03*
G54D12*
G01X38109Y-29591D03*
G01X39615Y-29591D03*
G54D11*
G01X24957Y-21463D03*
G01X23557Y-21463D03*
G54D13*
G01X38162Y-24892D03*
G01X39562Y-24892D03*
G54D11*
G01X24957Y-30226D03*
G01X23557Y-30226D03*
G54D13*
G01X38162Y-31242D03*
G01X39562Y-31242D03*
G54D14*
G01X17222Y-27402D03*
G01X17222Y-26152D03*
G01X17222Y-24902D03*
G01X17222Y-23652D03*
G54D15*
G01X14020Y-29252D03*
G01X14020Y-21802D03*
G54D16*
G01X45591Y-29385D03*
G01X45591Y-29085D03*
G01X45591Y-28585D03*
G01X45591Y-28285D03*
G01X45591Y-27785D03*
G01X45591Y-27285D03*
G01X45591Y-26785D03*
G01X45591Y-26285D03*
G01X45591Y-25785D03*
G01X45591Y-25285D03*
G01X45591Y-24285D03*
G01X45591Y-23785D03*
G01X45591Y-23485D03*
G01X45591Y-22985D03*
G01X45591Y-22685D03*
G01X45591Y-24785D03*
G54D17*
G01X50421Y-30355D03*
G01X50421Y-21715D03*
G54D18*
G01X46241Y-21715D03*
G01X46241Y-30355D03*
G54D19*
G01X43434Y-30734D03*
G01X43434Y-29718D03*
G54D10*
G01X25010Y-24511D03*
G01X23504Y-24511D03*
G01X39615Y-26543D03*
G01X38109Y-26543D03*
G54D20*
G01X27754Y-23412D03*
G01X27754Y-23912D03*
G01X27754Y-24412D03*
G01X27754Y-24912D03*
G01X27754Y-25412D03*
G01X27754Y-25912D03*
G01X27754Y-26412D03*
G01X27754Y-26912D03*
G01X27754Y-27412D03*
G01X27754Y-27912D03*
G01X27754Y-28412D03*
G01X27754Y-28912D03*
G54D21*
G01X29254Y-30412D03*
G01X29754Y-30412D03*
G01X30254Y-30412D03*
G01X30754Y-30412D03*
G01X31254Y-30412D03*
G01X31754Y-30412D03*
G01X32254Y-30412D03*
G01X32754Y-30412D03*
G01X33254Y-30412D03*
G01X33754Y-30412D03*
G01X34254Y-30412D03*
G01X34754Y-30412D03*
G54D20*
G01X36254Y-28912D03*
G01X36254Y-28412D03*
G01X36254Y-27912D03*
G01X36254Y-27412D03*
G01X36254Y-26912D03*
G01X36254Y-26412D03*
G01X36254Y-25912D03*
G01X36254Y-25412D03*
G01X36254Y-24912D03*
G01X36254Y-24412D03*
G01X36254Y-23912D03*
G01X36254Y-23412D03*
G54D21*
G01X34754Y-21912D03*
G01X34254Y-21912D03*
G01X33754Y-21912D03*
G01X33254Y-21912D03*
G01X32754Y-21912D03*
G01X32254Y-21912D03*
G01X31754Y-21912D03*
G01X31254Y-21912D03*
G01X30754Y-21912D03*
G01X30254Y-21912D03*
G01X29754Y-21912D03*
G01X29254Y-21912D03*
G54D12*
G01X38109Y-21717D03*
G01X39615Y-21717D03*
G54D10*
G01X43425Y-28194D03*
G01X41919Y-28194D03*
G01X39615Y-28067D03*
G01X38109Y-28067D03*
G54D22*
G01X41910Y-29972D03*
G01X41910Y-30988D03*
G54D13*
G01X41972Y-26543D03*
G01X43372Y-26543D03*
G54D11*
G01X43372Y-21336D03*
G01X41972Y-21336D03*
G54D23*
G01X43518Y-23876D03*
G01X43518Y-22926D03*
G01X43518Y-24826D03*
G01X41318Y-22926D03*
G01X41318Y-24826D03*
G54D24*
G01X24257Y-28001D03*
G01X24257Y-26101D03*
G04 Pad End*

M02*
