G04 Layer: BottomSilkscreenLayer*
G04 EasyEDA Pro v2.0.15, 2023-03-15 12:21:30*
G04 Gerber Generator version 0.3*
G04 Scale: 100 percent, Rotated: No, Reflected: No*
G04 Dimensions in millimeters*
G04 Leading zeros omitted, absolute positions, 3 integers and 3 decimals*
%FSLAX33Y33*%
%MOMM*%
%ADD10C,0.2032*%
%ADD11C,0.254*%
G75*


G04 Text Start*
G04 //text: V*
G54D10*
G01X18948Y-23254D02*
G01X18618Y-24120D01*
G01X18288Y-23254D02*
G01X18618Y-24120D01*
G04 //text: G*
G01X18329Y-24602D02*
G01X18369Y-24521D01*
G01X18453Y-24437D01*
G01X18534Y-24397D01*
G01X18699D01*
G01X18783Y-24437D01*
G01X18865Y-24521D01*
G01X18908Y-24602D01*
G01X18948Y-24727D01*
G01Y-24933D01*
G01X18908Y-25057D01*
G01X18865Y-25141D01*
G01X18783Y-25222D01*
G01X18699Y-25263D01*
G01X18534D01*
G01X18453Y-25222D01*
G01X18369Y-25141D01*
G01X18329Y-25057D01*
G01Y-24933D01*
G01X18534Y-24933D02*
G01X18329Y-24933D01*
G04 //text: R*
G01X18948Y-25667D02*
G01X18948Y-26533D01*
G01X18948Y-25667D02*
G01X18578Y-25667D01*
G01X18453Y-25707D01*
G01X18412Y-25751D01*
G01X18369Y-25832D01*
G01Y-25916D01*
G01X18412Y-25997D01*
G01X18453Y-26038D01*
G01X18578Y-26081D01*
G01X18948D01*
G01X18659Y-26081D02*
G01X18369Y-26533D01*
G04 //text: T*
G01X18659Y-26937D02*
G01X18659Y-27803D01*
G01X18948Y-26937D02*
G01X18369Y-26937D01*
G04 Text End*

G04 PolygonModel Start*
G54D11*
G01X15722Y-29527D02*
G01X17222Y-29527D01*
G01X17222Y-29527D02*
G01X17222Y-28027D01*
G01X17222Y-23121D02*
G01X17222Y-23027D01*
G01X17222Y-24371D02*
G01X17222Y-24183D01*
G01X17222Y-25621D02*
G01X17222Y-25433D01*
G01X17222Y-26871D02*
G01X17222Y-26683D01*
G01X12722Y-22533D02*
G01X12722Y-28521D01*
G01X17222Y-23027D02*
G01X17222Y-21527D01*
G01X17222Y-21527D02*
G01X15601Y-21527D01*
G04 PolygonModel End*

M02*
